<?xml version="1.0" encoding="utf-8"?>
<!-- Generator: Adobe Illustrator 16.0.0, SVG Export Plug-In . SVG Version: 6.00 Build 0)  -->
<!DOCTYPE svg PUBLIC "-//W3C//DTD SVG 1.1//EN" "http://www.w3.org/Graphics/SVG/1.1/DTD/svg11.dtd">
<svg version="1.1" id="Capa_1" xmlns="http://www.w3.org/2000/svg" xmlns:xlink="http://www.w3.org/1999/xlink" x="0px" y="0px"
	 width="43px" height="43px" viewBox="0 0 43 43" enable-background="new 0 0 43 43" xml:space="preserve">
<path fill="#00B3F7" d="M21.497,0C9.645,0,0,9.646,0,21.498C0,33.356,9.645,43,21.497,43C33.354,43,43,33.356,43,21.498
	C43,9.646,33.354,0,21.497,0 M26.847,22.255H23.35v12.471h-5.185V22.255H15.7V17.85h2.465v-2.851c0-2.038,0.969-5.23,5.231-5.23
	l3.839,0.016v4.276h-2.786c-0.457,0-1.1,0.229-1.1,1.2v2.593h3.949L26.847,22.255z"/>
</svg>
