<?xml version="1.0" encoding="utf-8"?>
<!-- Generator: Adobe Illustrator 16.0.0, SVG Export Plug-In . SVG Version: 6.00 Build 0)  -->
<!DOCTYPE svg PUBLIC "-//W3C//DTD SVG 1.1//EN" "http://www.w3.org/Graphics/SVG/1.1/DTD/svg11.dtd">
<svg version="1.1" id="Capa_1" xmlns="http://www.w3.org/2000/svg" xmlns:xlink="http://www.w3.org/1999/xlink" x="0px" y="0px"
	 width="43px" height="43px" viewBox="0 0 43 43" enable-background="new 0 0 43 43" xml:space="preserve">
<g>
	<path fill="#00B3F7" d="M21.497,25.802c2.373,0,4.305-1.928,4.305-4.303c0-0.936-0.304-1.801-0.811-2.509
		c-0.784-1.082-2.056-1.792-3.494-1.792c-1.433,0-2.706,0.706-3.487,1.792c-0.513,0.708-0.813,1.573-0.817,2.509
		C17.193,23.874,19.125,25.802,21.497,25.802"/>
	<polygon fill="#00B3F7" points="30.897,16.233 30.897,12.09 30.357,12.09 26.75,12.103 26.768,16.246 	"/>
	<path fill="#00B3F7" d="M21.497,0C9.645,0,0,9.646,0,21.499C0,33.354,9.645,43,21.497,43C33.354,43,43,33.354,43,21.499
		C43,9.646,33.354,0,21.497,0 M33.726,18.99v10.014c0,2.604-2.117,4.724-4.727,4.724H13.997c-2.605,0-4.725-2.119-4.725-4.724
		V14.001c0-2.609,2.119-4.727,4.725-4.727h15.002c2.609,0,4.727,2.118,4.727,4.727V18.99z"/>
	<path fill="#00B3F7" d="M28.188,21.498c0,3.687-2.997,6.689-6.689,6.689c-3.688,0-6.685-3.003-6.685-6.689
		c0-0.885,0.177-1.734,0.489-2.508h-3.648v10.014c0,1.295,1.047,2.338,2.342,2.338h15.002c1.294,0,2.343-1.043,2.343-2.338V18.99
		h-3.649C28.005,19.764,28.188,20.613,28.188,21.498"/>
</g>
</svg>
