<?xml version="1.0" encoding="utf-8"?>
<!-- Generator: Adobe Illustrator 16.0.0, SVG Export Plug-In . SVG Version: 6.00 Build 0)  -->
<!DOCTYPE svg PUBLIC "-//W3C//DTD SVG 1.1//EN" "http://www.w3.org/Graphics/SVG/1.1/DTD/svg11.dtd">
<svg version="1.1" id="Capa_1" xmlns="http://www.w3.org/2000/svg" xmlns:xlink="http://www.w3.org/1999/xlink" x="0px" y="0px"
	 width="43px" height="43px" viewBox="0 0 43 43" enable-background="new 0 0 43 43" xml:space="preserve">
<path fill="#00B3F7" d="M21.5,0C9.626,0,0,9.626,0,21.5S9.626,43,21.5,43C33.373,43,43,33.373,43,21.5S33.373,0,21.5,0
	 M13.438,32.249c-1.484,0-2.688-1.201-2.688-2.686c0-1.486,1.204-2.688,2.688-2.688c1.484,0,2.688,1.201,2.688,2.688
	C16.126,31.048,14.922,32.249,13.438,32.249 M20.828,32.249c0-5.556-4.521-10.077-10.078-10.077V18.14
	c7.78,0,14.109,6.331,14.109,14.109H20.828z M28.89,32.249c0-4.845-1.887-9.4-5.313-12.827c-3.424-3.426-7.98-5.313-12.826-5.313
	v-4.031c5.922,0,11.489,2.306,15.678,6.494c4.188,4.188,6.494,9.756,6.494,15.677H28.89z"/>
</svg>
