<?xml version="1.0" encoding="utf-8"?>
<!-- Generator: Adobe Illustrator 16.0.0, SVG Export Plug-In . SVG Version: 6.00 Build 0)  -->
<!DOCTYPE svg PUBLIC "-//W3C//DTD SVG 1.1//EN" "http://www.w3.org/Graphics/SVG/1.1/DTD/svg11.dtd">
<svg version="1.1" id="Capa_1" xmlns="http://www.w3.org/2000/svg" xmlns:xlink="http://www.w3.org/1999/xlink" x="0px" y="0px"
	 width="43px" height="43px" viewBox="0 0 43 43" enable-background="new 0 0 43 43" xml:space="preserve">
<path fill="#00B3F7" d="M21.497,0C9.645,0,0,9.646,0,21.499C0,33.354,9.645,43,21.497,43C33.353,43,43,33.354,43,21.499
	C43,9.646,33.353,0,21.497,0 M31.092,16.581c0.008,0.211,0.012,0.427,0.012,0.643c0,6.536-4.976,14.075-14.079,14.075
	c-2.796,0-5.396-0.814-7.586-2.223c0.388,0.046,0.78,0.071,1.179,0.071c2.321,0,4.452-0.792,6.147-2.119
	c-2.165-0.042-3.991-1.471-4.621-3.437c0.3,0.058,0.608,0.087,0.93,0.087c0.448,0,0.888-0.058,1.302-0.172
	c-2.263-0.453-3.971-2.452-3.971-4.85c0-0.021,0-0.042,0.005-0.064c0.663,0.373,1.43,0.592,2.242,0.617
	c-1.329-0.884-2.205-2.4-2.205-4.117c0-0.906,0.246-1.755,0.669-2.487c2.439,2.994,6.089,4.965,10.199,5.171
	c-0.085-0.364-0.127-0.739-0.127-1.128c0-2.732,2.215-4.947,4.948-4.947c1.425,0,2.71,0.6,3.61,1.56
	c1.128-0.22,2.19-0.63,3.146-1.201c-0.373,1.159-1.155,2.127-2.178,2.74c1.003-0.118,1.957-0.384,2.841-0.777
	C32.898,15.012,32.056,15.882,31.092,16.581"/>
</svg>
