<?xml version="1.0" encoding="utf-8"?>
<!-- Generator: Adobe Illustrator 16.0.0, SVG Export Plug-In . SVG Version: 6.00 Build 0)  -->
<!DOCTYPE svg PUBLIC "-//W3C//DTD SVG 1.1//EN" "http://www.w3.org/Graphics/SVG/1.1/DTD/svg11.dtd">
<svg version="1.1" id="Capa_1" xmlns="http://www.w3.org/2000/svg" xmlns:xlink="http://www.w3.org/1999/xlink" x="0px" y="0px"
	 width="43px" height="43px" viewBox="0 0 43 43" enable-background="new 0 0 43 43" xml:space="preserve">
<g>
	<path fill-rule="evenodd" clip-rule="evenodd" fill="#00B3F7" d="M17.584,26.212c3.225-1.672,6.423-3.33,9.65-5.003
		c-3.236-1.69-6.434-3.357-9.65-5.037V26.212z"/>
	<path fill-rule="evenodd" clip-rule="evenodd" fill="#00B3F7" d="M21.501,0C9.627,0,0,9.625,0,21.501C0,33.375,9.627,43,21.501,43
		S43,33.375,43,21.501C43,9.625,33.375,0,21.501,0 M36.15,28.677c-0.374,1.614-1.693,2.806-3.283,2.982
		c-3.765,0.42-7.572,0.424-11.368,0.42c-3.793,0.004-7.604,0-11.369-0.42c-1.59-0.177-2.909-1.368-3.28-2.982
		c-0.53-2.301-0.53-4.809-0.53-7.175c0-2.37,0.006-4.879,0.537-7.179c0.37-1.613,1.69-2.805,3.28-2.981
		c3.766-0.421,7.576-0.422,11.369-0.421c3.794-0.001,7.604,0,11.367,0.421c1.592,0.177,2.912,1.369,3.285,2.981
		c0.527,2.3,0.523,4.812,0.523,7.179C36.681,23.868,36.679,26.376,36.15,28.677"/>
</g>
</svg>
